<?xml version="1.0" encoding="UTF-8" standalone="no"?>
<svg width="137" height="16" viewBox="0 0 137 16" version="1.1" xmlns="http://www.w3.org/2000/svg" xmlns:xlink="http://www.w3.org/1999/xlink" preserveAspectRatio="xMidYMid"><path d="M10.17 7.518A4.273 4.273 0 0 0 7.382 0H0v15.844h7.382a4.628 4.628 0 0 0 2.787-8.326h.001Zm-.489-3.239a2.3 2.3 0 0 1-2.3 2.3h-5.4v-4.6h5.4a2.3 2.3 0 0 1 2.3 2.3Zm-2.3 9.583h-5.4v-5.3h5.4a2.652 2.652 0 1 1 0 5.3ZM22.888 1.98V0h-6.24v15.843h6.24v-1.98h-4.26v-5.3h3.2v-1.98h-3.2v-4.6l4.26-.003ZM34.685 15.842V.006h-1.98v9.669L29.439.019V.006H27.46v15.837h1.979V6.201l3.261 9.641h1.985ZM119.722.006v9.669L116.456.019V.006h-1.98v15.837h1.98V6.202l3.261 9.64h1.985V.006h-1.98ZM82.104 1.98V0h-6.24v15.845h1.98V8.559h3.2v-1.98h-3.2v-4.6l4.26.001ZM97.717 15.83l-2.6-7.672A4.275 4.275 0 0 0 93.33 0h-7.428v15.844h1.98V8.558h5.284l2.46 7.273 2.091-.001Zm-4.386-9.254h-5.449v-4.6h5.448a2.3 2.3 0 0 1 0 4.6M104.408.018l-3.464 15.814h2.028l.779-3.558h3.528l.78 3.558h2.028L106.622.018h-2.214Zm-.223 10.275 1.331-6.073 1.331 6.073h-2.662ZM136.795 15.831l-4.2-8.848L135.91.006h-2.193l-3.972 8.363V.006h-1.98v15.837h1.98v-2.859L131.5 9.29l3.106 6.541h2.189ZM57.53 14.41a4.608 4.608 0 0 0 3.338 1.433v-1.98c-1.852 0-2-1.492-2-2.6V8.544h2V6.553h-2V0h-3.994a4.273 4.273 0 0 0-2.787 7.518 4.627 4.627 0 0 0 2.781 8.324h.006a4.609 4.609 0 0 0 3.338-1.433l-.682.001Zm-.657-7.834h-2a2.3 2.3 0 1 1 0-4.6h2v4.6Zm0 1.978h-1.429 1.43Zm-4.647 2.655a2.656 2.656 0 0 1 2.652-2.653h1.995v2.705c0 1.108-.147 2.6-2 2.6a2.655 2.655 0 0 1-2.649-2.652"></path></svg>